<svg width="25" height="25" viewBox="0 0 25 25" fill="none" xmlns="http://www.w3.org/2000/svg">
    <path fill-rule="evenodd" clip-rule="evenodd"
        d="M11.124 13.5801V11.0801L18.624 3.58008L21.124 6.08008L13.624 13.5801H11.124Z"
        fill="#333333" stroke="#333333" stroke-width="2" stroke-linecap="round"
        stroke-linejoin="round" />
    <path fill-rule="evenodd" clip-rule="evenodd"
        d="M1.12402 15.5801C1.12402 13.9232 2.46717 12.5801 4.12402 12.5801H6.42402C6.70017 12.5801 6.92402 12.8039 6.92402 13.0801V14.0801C6.92402 14.3562 6.70017 14.5801 6.42402 14.5801H4.12402C3.57174 14.5801 3.12402 15.0278 3.12402 15.5801C3.12402 16.1324 3.57174 16.5801 4.12402 16.5801H19.124C20.7809 16.5801 22.124 17.9232 22.124 19.5801C22.124 21.2369 20.7809 22.5801 19.124 22.5801H11.224C10.9479 22.5801 10.724 22.3562 10.724 22.0801V21.0801C10.724 20.8039 10.9479 20.5801 11.224 20.5801H19.124C19.6763 20.5801 20.124 20.1324 20.124 19.5801C20.124 19.0278 19.6763 18.5801 19.124 18.5801H4.12402C2.46717 18.5801 1.12402 17.2369 1.12402 15.5801Z"
        fill="#333333" />
</svg>
