<svg width="25" height="25" viewBox="0 0 25 25" fill="none" xmlns="http://www.w3.org/2000/svg">
    <path
        d="M12.6371 13.2174L11.9083 14.7488C11.8945 14.7778 11.8739 14.803 11.8482 14.8222C11.8225 14.8414 11.7925 14.854 11.7608 14.8591C11.7292 14.8641 11.6967 14.8613 11.6664 14.851C11.636 14.8407 11.6086 14.8232 11.5865 14.7999L10.42 13.5685C10.3889 13.5356 10.3473 13.5145 10.3024 13.5086L8.62052 13.2886C8.58874 13.2844 8.55846 13.2725 8.53229 13.254C8.50611 13.2355 8.48483 13.2109 8.47028 13.1824C8.45572 13.1538 8.44833 13.1222 8.44875 13.0901C8.44916 13.0581 8.45736 13.0266 8.47265 12.9984L9.28348 11.5085C9.30503 11.4687 9.31224 11.4226 9.30389 11.3781L8.99333 9.71066C8.98743 9.6791 8.98931 9.64658 8.99881 9.61591C9.00831 9.58524 9.02514 9.55734 9.04784 9.53464C9.07055 9.51194 9.09844 9.49511 9.12911 9.48561C9.15978 9.47611 9.1923 9.47423 9.22387 9.48012L10.8913 9.79069C10.9358 9.79903 10.9819 9.79182 11.0217 9.77027L12.5116 8.95944C12.5398 8.94415 12.5713 8.93596 12.6034 8.93556C12.6355 8.93517 12.6671 8.94258 12.6957 8.95717C12.7243 8.97176 12.7489 8.99309 12.7673 9.0193C12.7858 9.04552 12.7976 9.07584 12.8018 9.10764L13.0218 10.7892C13.0277 10.8341 13.0488 10.8756 13.0817 10.9068L14.3131 12.0733C14.3364 12.0954 14.3539 12.1228 14.3642 12.1532C14.3745 12.1835 14.3773 12.216 14.3723 12.2476C14.3672 12.2793 14.3546 12.3093 14.3354 12.335C14.3162 12.3607 14.291 12.3813 14.2621 12.3951L12.7306 13.1239C12.6896 13.1434 12.6566 13.1764 12.6371 13.2174Z"
        fill="#333333" />
    <path fill-rule="evenodd" clip-rule="evenodd"
        d="M8.61812 17.1585L12.1614 20.8988C12.2284 20.9695 12.3117 21.0228 12.4039 21.0541C12.4962 21.0854 12.5947 21.0938 12.6909 21.0785C12.7871 21.0633 12.8781 21.0248 12.9562 20.9665C13.0342 20.9082 13.0968 20.8317 13.1387 20.7438L15.3525 16.0921C15.4118 15.9676 15.5121 15.8673 15.6366 15.808L20.2883 13.5942C20.3762 13.5523 20.4527 13.4897 20.511 13.4117C20.5693 13.3336 20.6078 13.2426 20.623 13.1464C20.6383 13.0502 20.6299 12.9517 20.5986 12.8594C20.5673 12.7672 20.514 12.6839 20.4433 12.6169L16.703 9.07362C16.6032 8.97896 16.5389 8.85289 16.5209 8.7165L15.8527 3.60868C15.8401 3.51207 15.8042 3.41998 15.7481 3.34035C15.692 3.26072 15.6173 3.19595 15.5305 3.15163C15.4438 3.10731 15.3475 3.08478 15.2501 3.08598C15.1527 3.08718 15.057 3.11208 14.9714 3.15852L10.4458 5.6214C10.3247 5.68687 10.1849 5.70877 10.0496 5.68342L4.98483 4.74008C4.88897 4.72217 4.79018 4.72789 4.69702 4.75674C4.60386 4.78559 4.51913 4.83671 4.45017 4.90567C4.38121 4.97463 4.33009 5.05936 4.30124 5.15252C4.27239 5.24568 4.26667 5.34447 4.28458 5.44033L5.22792 10.5051C5.25327 10.6404 5.23137 10.7802 5.1659 10.9013L2.70302 15.4269C2.65659 15.5125 2.63168 15.608 2.63042 15.7054C2.62917 15.8027 2.65161 15.8989 2.69582 15.9857C2.74002 16.0724 2.80467 16.1471 2.88417 16.2033C2.96368 16.2595 3.05566 16.2955 3.15218 16.3082L8.261 16.9764C8.39739 16.9944 8.52346 17.0587 8.61812 17.1585ZM5.43554 14.5898L8.52223 14.9936C9.11308 15.0714 9.65927 15.3499 10.0694 15.7823L12.2097 18.0417L13.5465 15.2328C13.5465 15.2328 13.5466 15.2328 13.5465 15.2328C13.8032 14.6935 14.2378 14.2588 14.7772 14.0021C14.7771 14.0021 14.7772 14.0021 14.7772 14.0021L17.5862 12.6652L15.3268 10.5249C14.8944 10.1148 14.6159 9.56858 14.5381 8.97773L14.1342 5.89108L11.3974 7.38051C10.8737 7.66379 10.2687 7.75877 9.68342 7.64961C9.68327 7.64958 9.68358 7.64964 9.68342 7.64961C9.68285 7.6495 9.68181 7.6493 9.68123 7.6492L6.62434 7.07984L7.1937 10.1367C7.1938 10.1373 7.19391 10.1379 7.19402 10.1385C7.19399 10.1383 7.19405 10.1386 7.19402 10.1385C7.30318 10.7237 7.20829 11.3292 6.92501 11.8529L6.92261 11.8573L5.43554 14.5898Z"
        fill="#333333" />
    <path
        d="M17.2055 16.9551L16.4985 17.6621C16.3033 17.8573 16.3033 18.1738 16.4985 18.3691L20.0335 21.9049C20.2287 22.1002 20.5453 22.1002 20.7406 21.905L21.4484 21.1972C21.6437 21.0019 21.6437 20.6853 21.4484 20.49L17.9126 16.955C17.7173 16.7598 17.4008 16.7598 17.2055 16.9551Z"
        fill="#333333" />
</svg>
