<svg width="25" height="25" viewBox="0 0 25 25" fill="none" xmlns="http://www.w3.org/2000/svg">
    <path fill-rule="evenodd" clip-rule="evenodd"
        d="M2.62402 3.58008C2.90017 3.58008 3.12402 3.80394 3.12402 4.08008V21.0801C3.12402 21.3562 2.90017 21.5801 2.62402 21.5801H1.62402C1.34788 21.5801 1.12402 21.3562 1.12402 21.0801V4.08008C1.12402 3.80394 1.34788 3.58008 1.62402 3.58008H2.62402ZM21.624 21.5801C21.3479 21.5801 21.124 21.3562 21.124 21.0801V4.08008C21.124 3.80394 21.3479 3.58008 21.624 3.58008H22.624C22.9002 3.58008 23.124 3.80394 23.124 4.08008V21.0801C23.124 21.3562 22.9002 21.5801 22.624 21.5801H21.624Z"
        fill="#333333" />
    <path fill-rule="evenodd" clip-rule="evenodd"
        d="M5.62402 6.08008C5.62402 5.80394 5.84788 5.58008 6.12402 5.58008H18.124C18.4002 5.58008 18.624 5.80394 18.624 6.08008V9.14258C18.624 9.41872 18.4002 9.64258 18.124 9.64258H17.124C16.8479 9.64258 16.624 9.41872 16.624 9.14258V7.58008H7.62402V9.14258C7.62402 9.41872 7.40017 9.64258 7.12402 9.64258H6.12402C5.84788 9.64258 5.62402 9.41872 5.62402 9.14258V6.08008Z"
        fill="#333333" />
    <path fill-rule="evenodd" clip-rule="evenodd"
        d="M9.06152 18.0801C9.06152 17.8039 9.28538 17.5801 9.56152 17.5801H14.6865C14.9627 17.5801 15.1865 17.8039 15.1865 18.0801V19.0801C15.1865 19.3562 14.9627 19.5801 14.6865 19.5801H9.56152C9.28538 19.5801 9.06152 19.3562 9.06152 19.0801V18.0801Z"
        fill="#333333" />
    <path fill-rule="evenodd" clip-rule="evenodd" d="M13.124 5.58008V19.5801H11.124V5.58008H13.124Z"
        fill="#333333" />
</svg>
