<svg width="25" height="24" viewBox="0 0 25 24" fill="none" xmlns="http://www.w3.org/2000/svg">
    <path
        d="M20.2069 15.1998L21.4089 15.9208C21.483 15.9652 21.5444 16.0281 21.587 16.1033C21.6297 16.1784 21.6521 16.2634 21.6521 16.3498C21.6521 16.4363 21.6297 16.5212 21.587 16.5964C21.5444 16.6716 21.483 16.7344 21.4089 16.7788L12.6389 22.0408C12.4833 22.1343 12.3053 22.1836 12.1239 22.1836C11.9424 22.1836 11.7644 22.1343 11.6089 22.0408L2.83888 16.7788C2.76472 16.7344 2.70334 16.6716 2.66072 16.5964C2.61811 16.5212 2.5957 16.4363 2.5957 16.3498C2.5957 16.2634 2.61811 16.1784 2.66072 16.1033C2.70334 16.0281 2.76472 15.9652 2.83888 15.9208L4.04088 15.1998L12.1239 20.0498L20.2069 15.1998ZM20.2069 10.4998L21.4089 11.2208C21.483 11.2652 21.5444 11.3281 21.587 11.4033C21.6297 11.4784 21.6521 11.5634 21.6521 11.6498C21.6521 11.7363 21.6297 11.8212 21.587 11.8964C21.5444 11.9716 21.483 12.0344 21.4089 12.0788L12.1239 17.6498L2.83888 12.0788C2.76472 12.0344 2.70334 11.9716 2.66072 11.8964C2.61811 11.8212 2.5957 11.7363 2.5957 11.6498C2.5957 11.5634 2.61811 11.4784 2.66072 11.4033C2.70334 11.3281 2.76472 11.2652 2.83888 11.2208L4.04088 10.4998L12.1239 15.3498L20.2069 10.4998ZM12.6379 1.30883L21.4089 6.57083C21.483 6.61522 21.5444 6.67807 21.587 6.75326C21.6297 6.82845 21.6521 6.9134 21.6521 6.99983C21.6521 7.08625 21.6297 7.1712 21.587 7.24639C21.5444 7.32158 21.483 7.38443 21.4089 7.42883L12.1239 12.9998L2.83888 7.42883C2.76472 7.38443 2.70334 7.32158 2.66072 7.24639C2.61811 7.1712 2.5957 7.08625 2.5957 6.99983C2.5957 6.9134 2.61811 6.82845 2.66072 6.75326C2.70334 6.67807 2.76472 6.61522 2.83888 6.57083L11.6089 1.30883C11.7644 1.21538 11.9424 1.16602 12.1239 1.16602C12.3053 1.16602 12.4833 1.21538 12.6389 1.30883H12.6379ZM12.1239 3.33183L6.01088 6.99983L12.1239 10.6678L18.2369 6.99983L12.1239 3.33183Z"
        fill="#333333" />
</svg>
