<svg width="25" height="25" viewBox="0 0 25 25" fill="none" xmlns="http://www.w3.org/2000/svg">
    <path
        d="M20.0279 7.33708L18.0279 9.33708V4.58008H9.02786V9.58008H4.02786V20.5801H18.0279V17.8231L20.0279 15.8231V21.5881C20.0276 21.8513 19.9229 22.1036 19.7367 22.2896C19.5505 22.4756 19.298 22.5801 19.0349 22.5801H3.02086C2.88953 22.5792 2.75968 22.5524 2.6387 22.5013C2.51773 22.4502 2.408 22.3758 2.31579 22.2822C2.22358 22.1887 2.1507 22.078 2.10129 21.9563C2.05189 21.8346 2.02693 21.7044 2.02786 21.5731V8.58008L8.03086 2.58008H19.0259C19.5779 2.58008 20.0279 3.03508 20.0279 3.57208V7.33708ZM20.8059 9.38708L22.2199 10.8021L14.4419 18.5801L13.0259 18.5781L13.0279 17.1661L20.8059 9.38808V9.38708Z"
        fill="#333333" />
</svg>
