<svg width="25" height="24" viewBox="0 0 25 24" fill="none" xmlns="http://www.w3.org/2000/svg">
    <path fill-rule="evenodd" clip-rule="evenodd"
        d="M12.124 7.5C9.63875 7.5 7.62402 9.51472 7.62402 12C7.62402 14.4853 9.63875 16.5 12.124 16.5C14.6093 16.5 16.624 14.4853 16.624 12C16.624 9.51472 14.6093 7.5 12.124 7.5ZM9.62402 12C9.62402 10.6193 10.7433 9.5 12.124 9.5C13.5047 9.5 14.624 10.6193 14.624 12C14.624 13.3807 13.5047 14.5 12.124 14.5C10.7433 14.5 9.62402 13.3807 9.62402 12Z"
        fill="#333333" />
    <path fill-rule="evenodd" clip-rule="evenodd"
        d="M12.8311 1.79289C12.4406 1.40237 11.8074 1.40237 11.4169 1.79289L8.92732 4.28249H5.40652C4.85424 4.28249 4.40652 4.73021 4.40652 5.28249V8.80329L1.91692 11.2929C1.52639 11.6834 1.52639 12.3166 1.91692 12.7071L4.40652 15.1967V18.7175C4.40652 19.2698 4.85424 19.7175 5.40652 19.7175H8.92734L11.4169 22.2071C11.8074 22.5976 12.4406 22.5976 12.8311 22.2071L15.3207 19.7175H18.8416C19.3938 19.7175 19.8416 19.2698 19.8416 18.7175V15.1967L22.3311 12.7071C22.5187 12.5196 22.624 12.2652 22.624 12C22.624 11.7348 22.5187 11.4804 22.3311 11.2929L19.8416 8.80332V5.28249C19.8416 4.73021 19.3938 4.28249 18.8416 4.28249H15.3207L12.8311 1.79289ZM10.0486 5.9896L12.124 3.91421L14.1994 5.9896C14.387 6.17714 14.6413 6.28249 14.9065 6.28249H17.8416V9.21753C17.8416 9.48275 17.9469 9.7371 18.1345 9.92464L20.2098 12L18.1345 14.0754C17.9469 14.2629 17.8416 14.5173 17.8416 14.7825V17.7175H14.9065C14.6413 17.7175 14.3869 17.8229 14.1994 18.0104L12.124 20.0858L10.0487 18.0104C9.86112 17.8229 9.60677 17.7175 9.34155 17.7175H6.40652V14.7825C6.40652 14.5173 6.30117 14.2629 6.11363 14.0754L4.03824 12L6.11363 9.92461C6.30117 9.73708 6.40652 9.48272 6.40652 9.21751V6.28249H9.34154C9.60675 6.28249 9.86111 6.17714 10.0486 5.9896Z"
        fill="#333333" />
</svg>
