<svg width="25" height="25" viewBox="0 0 25 25" fill="none" xmlns="http://www.w3.org/2000/svg">
    <path
        d="M12.0723 3.77734C9.58727 3.77734 7.33589 4.7858 5.70833 6.4134C5.53065 6.59108 5.30831 6.82442 5.07227 7.07723V5.09871C5.07227 4.82257 4.84841 4.59871 4.57227 4.59871H3.57227C3.29612 4.59871 3.07227 4.82257 3.07227 5.09871V9.67362C3.07227 10.2259 3.51998 10.6736 4.07227 10.6736H8.57227C8.84841 10.6736 9.07227 10.4498 9.07227 10.1736V9.17362C9.07227 8.89748 8.84841 8.67362 8.57227 8.67362H6.31917C6.6241 8.34363 6.91325 8.03691 7.12256 7.8276C8.39037 6.55975 10.139 5.77734 12.0723 5.77734C15.9383 5.77734 19.0723 8.91136 19.0723 12.7773C19.0723 16.6433 15.9383 19.7773 12.0723 19.7773C10.3187 19.7773 8.71707 19.1336 7.48835 18.0678C7.27975 17.8869 6.96427 17.8854 6.769 18.0806L6.06189 18.7877C5.86662 18.983 5.86572 19.3007 6.07147 19.4849C7.66309 20.9096 9.76718 21.7773 12.0723 21.7773C17.0428 21.7773 21.0723 17.7479 21.0723 12.7773C21.0723 7.80679 17.0428 3.77734 12.0723 3.77734Z"
        fill="#0C0C06" />
</svg>
