<svg width="25" height="25" viewBox="0 0 25 25" fill="none" xmlns="http://www.w3.org/2000/svg">
    <path
        d="M19.624 14.5801C19.9002 14.5801 20.124 14.8039 20.124 15.0801V17.5801H22.624C22.9002 17.5801 23.124 17.8039 23.124 18.0801V19.0801C23.124 19.3562 22.9002 19.5801 22.624 19.5801H20.124V22.0801C20.124 22.3562 19.9002 22.5801 19.624 22.5801H18.624C18.3479 22.5801 18.124 22.3562 18.124 22.0801V19.5801H15.624C15.3479 19.5801 15.124 19.3562 15.124 19.0801V18.0801C15.124 17.8039 15.3479 17.5801 15.624 17.5801H18.124V15.0801C18.124 14.8039 18.3479 14.5801 18.624 14.5801H19.624ZM20.132 2.58008C20.68 2.58008 21.124 3.02508 21.124 3.57308V12.9221C20.4817 12.6952 19.8053 12.5795 19.124 12.5801V4.58008H3.12402L3.12502 18.5801L12.417 9.28708C12.589 9.11456 12.818 9.01081 13.0611 8.99534C13.3042 8.97987 13.5446 9.05375 13.737 9.20308L13.83 9.28808L17.376 12.8381C16.6007 13.0743 15.8812 13.4652 15.261 13.987C14.6408 14.5089 14.1326 15.1509 13.7673 15.8745C13.4019 16.598 13.1869 17.3881 13.1351 18.197C13.0833 19.0059 13.1959 19.8169 13.466 20.5811L2.11602 20.5801C1.85284 20.5798 1.60052 20.4751 1.41451 20.2889C1.22851 20.1027 1.12402 19.8503 1.12402 19.5871V3.57308C1.12585 3.31046 1.23092 3.0591 1.41654 2.8733C1.60215 2.6875 1.8534 2.58217 2.11602 2.58008H20.132ZM7.12402 6.58008C7.65446 6.58008 8.16316 6.79079 8.53824 7.16586C8.91331 7.54094 9.12402 8.04964 9.12402 8.58008C9.12402 9.11051 8.91331 9.61922 8.53824 9.99429C8.16316 10.3694 7.65446 10.5801 7.12402 10.5801C6.59359 10.5801 6.08488 10.3694 5.70981 9.99429C5.33474 9.61922 5.12402 9.11051 5.12402 8.58008C5.12402 8.04964 5.33474 7.54094 5.70981 7.16586C6.08488 6.79079 6.59359 6.58008 7.12402 6.58008Z"
        fill="#333333" />
</svg>
