<svg width="25" height="25" viewBox="0 0 25 25" fill="none" xmlns="http://www.w3.org/2000/svg">
    <path fill-rule="evenodd" clip-rule="evenodd"
        d="M5.62402 10.0996H2.62402C2.34788 10.0996 2.12402 9.87575 2.12402 9.59961V2.59961C2.12402 2.32347 2.34788 2.09961 2.62402 2.09961H9.62402C9.90017 2.09961 10.124 2.32347 10.124 2.59961V5.59961L18.124 5.59961C18.4002 5.59961 18.624 5.82347 18.624 6.09961V14.0996H21.624C21.9002 14.0996 22.124 14.3235 22.124 14.5996V21.5996C22.124 21.8758 21.9002 22.0996 21.624 22.0996H14.624C14.3479 22.0996 14.124 21.8758 14.124 21.5996V18.5996H6.12402C5.84788 18.5996 5.62402 18.3758 5.62402 18.0996L5.62402 10.0996ZM5.62402 8.09961H4.12402L4.12402 4.09961L8.12402 4.09961V5.59961H6.12402C5.84788 5.59961 5.62402 5.82347 5.62402 6.09961V8.09961ZM16.124 18.5996V20.0996H20.124V16.0996H18.624V18.0996C18.624 18.3758 18.4002 18.5996 18.124 18.5996H16.124Z"
        fill="#333333" />
</svg>
