<svg width="25" height="25" viewBox="0 0 25 25" fill="none" xmlns="http://www.w3.org/2000/svg">
    <path fill-rule="evenodd" clip-rule="evenodd"
        d="M16.124 8.09961V2.59961C16.124 2.32347 15.9002 2.09961 15.624 2.09961H2.62402C2.34788 2.09961 2.12402 2.32347 2.12402 2.59961V15.5996C2.12402 15.8758 2.34788 16.0996 2.62402 16.0996H8.12402V21.5996C8.12402 21.8758 8.34788 22.0996 8.62402 22.0996H21.624C21.9002 22.0996 22.124 21.8758 22.124 21.5996V8.59961C22.124 8.32347 21.9002 8.09961 21.624 8.09961L16.124 8.09961ZM16.124 10.0996V15.5996C16.124 15.8758 15.9002 16.0996 15.624 16.0996H10.124V20.0996H20.124V10.0996H16.124Z"
        fill="#333333" />
</svg>
