<svg width="25" height="25" viewBox="0 0 25 25" fill="none" xmlns="http://www.w3.org/2000/svg">
    <path fill-rule="evenodd" clip-rule="evenodd"
        d="M8.12402 16.0996L8.12402 21.5996C8.12402 21.8758 8.34788 22.0996 8.62402 22.0996L21.624 22.0996C21.9002 22.0996 22.124 21.8758 22.124 21.5996L22.124 8.59961C22.124 8.32347 21.9002 8.09961 21.624 8.09961L16.124 8.09961L16.124 2.59961C16.124 2.32347 15.9002 2.09961 15.624 2.09961L2.62403 2.09961C2.34788 2.09961 2.12403 2.32347 2.12403 2.59961L2.12402 15.5996C2.12402 15.8757 2.34788 16.0996 2.62402 16.0996L8.12402 16.0996ZM14.124 14.0996L14.124 4.09961L4.12403 4.09961L4.12402 14.0996L14.124 14.0996Z"
        fill="#333333" />
</svg>
