<svg class="icon" viewBox="0 0 1024 1024" version="1.1" xmlns="http://www.w3.org/2000/svg"
    width="25" height="25">
    <path
        d="M288 320V288h32-32v32z m384-32V128h-4.544c-39.712 62.816-69.344 116.16-88.896 160H672z m32 0h192a32 32 0 0 1 32 32v576a32 32 0 0 1-32 32H320a32 32 0 0 1-32-32v-192H128a32 32 0 0 1-32-32V128a32 32 0 0 1 32-32h560l-2.08 3.2A32 32 0 0 1 704 128v160zM288 672v-260.96a102.08 102.08 0 0 0-8-9.056c-45.344-45.312-90.656-136-136-272V128H128v544h160z m608-352H320v576h576V320z m-384 160h96v96h-96v-96z m0 128h96v96h-96v-96z m0 128h96v96h-96v-96z m128-256h96v96h-96v-96z m0 128h96v96h-96v-96z m-256-128h96v96h-96v-96z m0-128h96v96h-96v-96z m128 0h96v96h-96v-96z m128 0h96v96h-96v-96z m128 0h96v96h-96v-96z"
        fill="#333333"></path>
</svg>