<svg width="25" height="25" viewBox="0 0 25 25" fill="none" xmlns="http://www.w3.org/2000/svg">
    <g clip-path="url(#clip0_1064_39681)">
        <path fill-rule="evenodd" clip-rule="evenodd"
            d="M7.29162 1.68945C7.29162 1.41331 7.06777 1.18945 6.79162 1.18945H2.15527C1.87913 1.18945 1.65527 1.41331 1.65527 1.68945V6.3258C1.65527 6.60195 1.87913 6.8258 2.15527 6.8258H3.47363V11.1895H2.15527C1.87913 11.1895 1.65527 11.4133 1.65527 11.6895V16.3258C1.65527 16.6019 1.87913 16.8258 2.15527 16.8258H6.79162C7.06777 16.8258 7.29162 16.6019 7.29162 16.3258V15.0075H9.83691V17.5532H8.5188C8.24266 17.5532 8.0188 17.7771 8.0188 18.0532V22.6896C8.0188 22.9657 8.24266 23.1896 8.5188 23.1896H13.1551C13.4313 23.1896 13.6551 22.9657 13.6551 22.6896V21.3716H18.0188V22.6896C18.0188 22.9657 18.2427 23.1896 18.5188 23.1896H23.1551C23.4313 23.1896 23.6551 22.9657 23.6551 22.6896V18.0532C23.6551 17.7771 23.4313 17.5532 23.1551 17.5532H21.8369V13.1896H23.1551C23.4313 13.1896 23.6551 12.9657 23.6551 12.6896V8.05322C23.6551 7.77708 23.4313 7.55322 23.1551 7.55322H18.5188C18.2427 7.55322 18.0188 7.77708 18.0188 8.05322V9.37109H15.4736V6.8258H16.7916C17.0678 6.8258 17.2916 6.60195 17.2916 6.3258V1.68945C17.2916 1.41331 17.0678 1.18945 16.7916 1.18945H12.1553C11.8791 1.18945 11.6553 1.41331 11.6553 1.68945V3.00732H7.29162V1.68945ZM20.8525 11.1896C20.8473 11.1895 20.8421 11.1895 20.8369 11.1895C20.8317 11.1895 20.8265 11.1895 20.8213 11.1896H20.0188V9.55322H21.6551V11.1896H20.8525ZM19.8369 13.1896V17.5532H18.5188C18.2427 17.5532 18.0188 17.7771 18.0188 18.0532V19.3716H13.6551V18.0532C13.6551 17.7771 13.4313 17.5532 13.1551 17.5532H11.8369V15.0075H14.9736C15.2497 15.0075 15.4736 14.7837 15.4736 14.5075V11.3711H18.0188V12.6896C18.0188 12.9657 18.2427 13.1896 18.5188 13.1896H19.8369ZM4.47363 4.82568L4.48926 4.8258H5.29162V3.18945H3.65527V4.8258H4.458L4.47363 4.82568ZM5.47363 11.1895V6.8258H6.79162C7.06777 6.8258 7.29162 6.60195 7.29162 6.3258V5.00732H11.6553V6.8258H13.4736V13.0075H7.29162V11.6895C7.29162 11.4133 7.06777 11.1895 6.79162 11.1895H5.47363ZM14.4736 4.82568L14.4892 4.8258H15.2916V3.18945H13.6553V3.99135L13.6554 4.00732L13.6553 4.02329V4.8258H14.458L14.4736 4.82568ZM20.0188 20.3875V21.1896H21.6551V19.5532H20.0188V20.3557L20.0189 20.3716L20.0188 20.3875ZM3.65527 13.1895V14.8258H5.29162V13.1895H3.65527ZM10.0188 21.1896V19.5532H11.6551V21.1896H10.0188Z"
            fill="#0C0C06" />
    </g>
    <defs>
        <clipPath id="clip0_1064_39681">
            <rect width="24" height="24" fill="white" transform="translate(0.655273 0.189453)" />
        </clipPath>
    </defs>
</svg>
