<svg width="25" height="25" viewBox="0 0 25 25" fill="none" xmlns="http://www.w3.org/2000/svg">
    <path
        d="M8.41504 13.4668L8.41504 12.4668C8.41504 12.1907 8.6389 11.9668 8.91504 11.9668L15.915 11.9668C16.1912 11.9668 16.415 12.1907 16.415 12.4668L16.415 13.4668C16.415 13.7429 16.1912 13.9668 15.915 13.9668L8.91504 13.9668C8.6389 13.9668 8.41504 13.7429 8.41504 13.4668Z"
        fill="#333333" />
    <path
        d="M8.41504 7.4668L8.41504 6.4668C8.41504 6.19065 8.6389 5.9668 8.91504 5.9668L15.915 5.9668C16.1912 5.9668 16.415 6.19065 16.415 6.4668L16.415 7.4668C16.415 7.74294 16.1912 7.9668 15.915 7.9668L8.91504 7.9668C8.6389 7.9668 8.41504 7.74294 8.41504 7.4668Z"
        fill="#333333" />
    <path
        d="M8.41504 19.4668L8.41504 18.4668C8.41504 18.1907 8.6389 17.9668 8.91504 17.9668L15.915 17.9668C16.1912 17.9668 16.415 18.1907 16.415 18.4668L16.415 19.4668C16.415 19.7429 16.1912 19.9668 15.915 19.9668L8.91504 19.9668C8.6389 19.9668 8.41504 19.7429 8.41504 19.4668Z"
        fill="#333333" />
    <path
        d="M20.4136 17.5497L20.4136 5.4668C20.4136 5.19065 20.1897 4.9668 19.9136 4.9668L18.9136 4.9668C18.6374 4.9668 18.4136 5.19066 18.4136 5.4668L18.4136 19.9639C18.4136 20.3684 18.6573 20.733 19.0309 20.8878C19.4046 21.0426 19.8347 20.957 20.1207 20.671L23.3027 17.489C23.498 17.2938 23.498 16.9772 23.3027 16.7819L22.5956 16.0748C22.4003 15.8796 22.0838 15.8796 21.8885 16.0748L20.4136 17.5497Z"
        fill="#333333" />
    <path
        d="M4.41648 8.38103L4.41652 20.464C4.41652 20.7401 4.64038 20.964 4.91652 20.964L5.91652 20.9639C6.19266 20.9639 6.41652 20.7401 6.41652 20.4639L6.41647 5.96682C6.41647 5.56236 6.17282 5.19773 5.79915 5.04295C5.42548 4.88817 4.99536 4.97372 4.70936 5.25972L1.52738 8.4417C1.33212 8.63696 1.33212 8.95354 1.52738 9.14881L2.23449 9.85591C2.42975 10.0512 2.74633 10.0512 2.94159 9.85591L4.41648 8.38103Z"
        fill="#333333" />
</svg>
