<svg width="25" height="25" viewBox="0 0 25 25" fill="none" xmlns="http://www.w3.org/2000/svg">
    <g clip-path="url(#clip0_1064_39680)">
        <path fill-rule="evenodd" clip-rule="evenodd"
            d="M7.67871 1.68945C7.67871 1.41331 7.45485 1.18945 7.17871 1.18945H2.17871C1.90257 1.18945 1.67871 1.41331 1.67871 1.68945V6.68945C1.67871 6.9656 1.90257 7.18945 2.17871 7.18945H3.67871V17.1895H2.17871C1.90257 17.1895 1.67871 17.4133 1.67871 17.6895V22.6895C1.67871 22.9656 1.90257 23.1895 2.17871 23.1895H7.17871C7.45485 23.1895 7.67871 22.9656 7.67871 22.6895V21.1895H17.6787V22.6895C17.6787 22.9656 17.9026 23.1895 18.1787 23.1895H23.1787C23.4549 23.1895 23.6787 22.9656 23.6787 22.6895V17.6895C23.6787 17.4133 23.4549 17.1895 23.1787 17.1895H21.6787V7.18945H23.1787C23.4549 7.18945 23.6787 6.9656 23.6787 6.68945V1.68945C23.6787 1.41331 23.4549 1.18945 23.1787 1.18945H18.1787C17.9026 1.18945 17.6787 1.41331 17.6787 1.68945V3.18945H7.67871V1.68945ZM17.6787 19.1895H7.67871V17.6895C7.67871 17.4133 7.45485 17.1895 7.17871 17.1895H5.67871V7.18945H7.17871C7.45485 7.18945 7.67871 6.9656 7.67871 6.68945V5.18945H17.6787V6.68945C17.6787 6.9656 17.9026 7.18945 18.1787 7.18945H19.6787V17.1895H18.1787C17.9026 17.1895 17.6787 17.4133 17.6787 17.6895V19.1895ZM19.6787 21.1895H21.6787V19.1895H19.6787V21.1895ZM5.67871 19.1895H3.67871V21.1895H5.67871V19.1895ZM5.67871 3.18945V5.18945H3.67871V3.18945H5.67871ZM19.6787 5.18945V3.18945H21.6787V5.18945H19.6787Z"
            fill="#0C0C06" />
        <path
            d="M14.4787 7.68945C14.4787 7.41331 14.2549 7.18945 13.9787 7.18945H8.17871C7.90257 7.18945 7.67871 7.41331 7.67871 7.68945V13.4895C7.67871 13.7656 7.90257 13.9895 8.17871 13.9895H10.8787V16.6895C10.8787 16.9656 11.1026 17.1895 11.3787 17.1895H17.1787C17.4549 17.1895 17.6787 16.9656 17.6787 16.6895V10.8895C17.6787 10.6133 17.4549 10.3895 17.1787 10.3895H14.4787V7.68945Z"
            fill="#0C0C06" />
    </g>
    <defs>
        <clipPath id="clip0_1064_39680">
            <rect width="24" height="24" fill="white" transform="translate(0.655273 0.189453)" />
        </clipPath>
    </defs>
</svg>
