<svg width="25" height="25" viewBox="0 0 25 25" fill="none" xmlns="http://www.w3.org/2000/svg">
    <path
        d="M12.0722 3.77734C14.5573 3.77734 16.8086 4.7858 18.4362 6.4134C18.6139 6.59108 18.8362 6.82442 19.0723 7.07723V5.09871C19.0723 4.82257 19.2961 4.59871 19.5723 4.59871H20.5723C20.8484 4.59871 21.0723 4.82257 21.0723 5.09871V9.67362C21.0723 10.2259 20.6246 10.6736 20.0723 10.6736H15.5723C15.2961 10.6736 15.0723 10.4498 15.0723 10.1736V9.17362C15.0723 8.89748 15.2961 8.67362 15.5723 8.67362H17.8254C17.5204 8.34363 17.2313 8.03691 17.022 7.8276C15.7542 6.55975 14.0055 5.77734 12.0722 5.77734C8.20626 5.77734 5.07224 8.91136 5.07224 12.7773C5.07224 16.6433 8.20626 19.7773 12.0722 19.7773C13.8258 19.7773 15.4275 19.1336 16.6562 18.0678C16.8648 17.8869 17.1803 17.8854 17.3755 18.0806L18.0826 18.7877C18.2779 18.983 18.2788 19.3007 18.0731 19.4849C16.4814 20.9096 14.3774 21.7773 12.0722 21.7773C7.10169 21.7773 3.07224 17.7479 3.07224 12.7773C3.07224 7.80679 7.10169 3.77734 12.0722 3.77734Z"
        fill="#0C0C06" />
</svg>
