<svg width="25" height="25" viewBox="0 0 25 25" fill="none" xmlns="http://www.w3.org/2000/svg">
    <path fill-rule="evenodd" clip-rule="evenodd"
        d="M12.6095 2.01562C11.3406 2.01562 10.1237 2.51967 9.22642 3.41691C8.32916 4.31417 7.8252 5.532 7.8252 6.80083C7.82596 7.63171 8.0431 8.44804 8.4552 9.16947C8.76592 9.71342 9.17939 10.1893 9.67065 10.5718L9.63377 12.0156H5.12663C4.88498 12.0156 4.67792 12.1884 4.63469 12.4262L3.50755 18.6262C3.45175 18.9331 3.68754 19.2156 3.99948 19.2156H21.1977C21.5096 19.2156 21.7454 18.9331 21.6896 18.6262L20.5625 12.4262C20.5192 12.1884 20.3122 12.0156 20.0705 12.0156H15.5805L15.5436 10.5726C16.0355 10.1907 16.4497 9.71505 16.7611 9.17123C17.1743 8.44977 17.3924 7.63305 17.3938 6.80157L17.3938 6.79992C17.3938 5.53101 16.8896 4.31411 15.9924 3.41691C15.0952 2.51969 13.8784 2.01562 12.6095 2.01562ZM13.5798 12.0156L13.5229 9.78572C13.5182 9.60413 13.6124 9.43431 13.7689 9.34213L14.0225 9.19276C14.4394 8.94723 14.7851 8.59726 15.0256 8.17733C15.2659 7.75765 15.3928 7.28265 15.3938 6.79912C15.3936 6.061 15.1002 5.35312 14.5782 4.83112C14.0561 4.30896 13.3479 4.01562 12.6095 4.01562C11.871 4.01562 11.1628 4.30898 10.6406 4.83112C10.1186 5.35314 9.82532 6.06114 9.82519 6.79946C9.82572 7.28281 9.95208 7.75772 10.1918 8.17747C10.4317 8.59737 10.7767 8.94752 11.1929 9.1935L11.4459 9.34299C11.6021 9.43527 11.696 9.60488 11.6914 9.78621L11.6344 12.0156H13.5798ZM6.37852 14.0156L5.79677 17.2156H19.4004L18.8186 14.0156H6.37852Z"
        fill="#333333" />
    <path
        d="M3.40039 20.5156C3.40039 20.2395 3.62425 20.0156 3.90039 20.0156H21.2968C21.5729 20.0156 21.7968 20.2395 21.7968 20.5156V21.5156C21.7968 21.7918 21.5729 22.0156 21.2968 22.0156H3.90039C3.62425 22.0156 3.40039 21.7918 3.40039 21.5156V20.5156Z"
        fill="#333333" />
</svg>
