<svg width="25" height="25" viewBox="0 0 25 25" fill="none" xmlns="http://www.w3.org/2000/svg">
    <path
        d="M6.62023 13.3379C6.81549 13.1427 7.13208 13.1427 7.32734 13.3379L11.3779 17.3885C11.5731 17.5837 11.5731 17.9003 11.3779 18.0956L10.6708 18.8027C10.4755 18.9979 10.1589 18.9979 9.96365 18.8027L5.91312 14.7521C5.71786 14.5569 5.71786 14.2403 5.91312 14.045L6.62023 13.3379Z"
        fill="#333333" />
    <path
        d="M19.2841 9.98619C19.4794 9.79093 19.4794 9.47435 19.2841 9.27908L15.2336 5.22855C15.0383 5.03329 14.7217 5.03329 14.5265 5.22855L13.8194 5.93566C13.6241 6.13092 13.6241 6.4475 13.8194 6.64277L17.8699 10.6933C18.0652 10.8886 18.3818 10.8886 18.577 10.6933L19.2841 9.98619Z"
        fill="#333333" />
    <path
        d="M7.13 8.2598C7.32526 8.06454 7.64184 8.06454 7.8371 8.2598L16.4508 16.8735C16.646 17.0687 16.646 17.3853 16.4508 17.5806L15.7437 18.2877C15.5484 18.483 15.2318 18.483 15.0366 18.2877L6.42289 9.67402C6.22763 9.47875 6.22763 9.16217 6.42289 8.96691L7.13 8.2598Z"
        fill="#333333" />
    <path
        d="M18.9767 14.9595C19.1719 14.7642 19.1719 14.4477 18.9767 14.2524L10.363 5.63871C10.1677 5.44345 9.85114 5.44345 9.65588 5.63871L8.94877 6.34582C8.75351 6.54108 8.75351 6.85766 8.94877 7.05292L17.5624 15.6666C17.7577 15.8619 18.0743 15.8619 18.2696 15.6666L18.9767 14.9595Z"
        fill="#333333" />
    <path fill-rule="evenodd" clip-rule="evenodd"
        d="M22.0986 2.01562C22.3748 2.01562 22.5986 2.23948 22.5986 2.51562V21.5156C22.5986 21.7918 22.3748 22.0156 22.0986 22.0156H3.09863C2.82249 22.0156 2.59863 21.7918 2.59863 21.5156V2.51562C2.59863 2.23948 2.82249 2.01562 3.09863 2.01562H22.0986ZM20.5986 4.01562H4.59863V20.0156H20.5986V4.01562Z"
        fill="#333333" />
</svg>
