<svg width="25" height="25" viewBox="0 0 25 25" fill="none" xmlns="http://www.w3.org/2000/svg">
    <path
        d="M10.4524 17.3829L10.4493 17.3817C9.773 17.1191 9.18076 16.7358 8.67777 16.2323C8.17203 15.726 7.78371 15.1146 7.50945 14.4064C7.23201 13.69 7.09863 12.8893 7.09863 12.0123C7.09863 10.8591 7.32529 9.83887 7.80088 8.97073C8.27212 8.10581 8.83247 7.51244 9.76902 6.97049C10.7812 6.38476 11.5321 6.2739 12.6402 6.26584C13.9474 6.25634 15.1213 6.55606 15.9913 7.18734C16.8532 7.80902 17.4353 8.66811 17.7402 9.739C17.8218 10.0259 17.6357 10.3201 17.3414 10.3691L15.7426 10.6353C15.5055 10.6748 15.274 10.54 15.1911 10.3144C15.0021 9.79967 14.7035 9.40123 14.2948 9.103C13.908 8.82072 13.4093 8.66984 12.7218 8.6526C12.0333 8.63533 11.4966 8.78928 11.0782 9.05186C10.6599 9.31756 10.3416 9.69089 10.1228 10.1891L10.1222 10.1904C9.89889 10.6947 9.7775 11.2992 9.77283 12.0156C9.76817 12.73 9.88477 13.3319 10.1068 13.8335C10.3243 14.3205 10.6439 14.6904 11.0688 14.9576C11.4901 15.2195 12.0371 15.3677 12.7374 15.3719L12.7419 15.3719C13.2999 15.3804 13.7473 15.2852 14.1026 15.1092C14.6124 14.8535 15.0368 14.3538 15.2545 13.7969H13.7826C13.5065 13.7969 13.2826 13.573 13.2826 13.2969V12.1201C13.2826 11.8439 13.5065 11.6201 13.7826 11.6201H17.5685C17.8446 11.6201 18.0685 11.8439 18.0685 12.1201C18.0685 13.0605 17.98 14.1611 17.4601 15.1457C17.0273 15.9654 16.3955 16.6109 15.5758 17.0771L15.5737 17.0782C14.7439 17.5449 13.7602 17.7658 12.6439 17.7658C11.8608 17.7658 11.1286 17.6403 10.4524 17.3829Z"
        fill="#333333" />
    <path fill-rule="evenodd" clip-rule="evenodd"
        d="M22.5986 2.51562C22.5986 2.23948 22.3748 2.01562 22.0986 2.01562H3.09863C2.82249 2.01562 2.59863 2.23948 2.59863 2.51562V21.5156C2.59863 21.7918 2.82249 22.0156 3.09863 22.0156H22.0986C22.3748 22.0156 22.5986 21.7918 22.5986 21.5156V2.51562ZM4.59863 4.01562H20.5986V20.0156H4.59863V4.01562Z"
        fill="#333333" />
</svg>
