<svg width="25" height="25" viewBox="0 0 25 25" fill="none" xmlns="http://www.w3.org/2000/svg">
    <path fill-rule="evenodd" clip-rule="evenodd"
        d="M18.0986 6.01563C18.3748 6.01563 18.5986 6.23948 18.5986 6.51563L18.5986 17.5156C18.5986 17.7918 18.3748 18.0156 18.0986 18.0156L7.09863 18.0156C6.82249 18.0156 6.59863 17.7918 6.59863 17.5156L6.59863 6.51562C6.59863 6.23948 6.82249 6.01563 7.09863 6.01563L18.0986 6.01563ZM8.59863 8.01562L8.59863 16.0156H16.5986V8.01563L8.59863 8.01562Z"
        fill="#333333" />
    <path fill-rule="evenodd" clip-rule="evenodd"
        d="M19.0986 22.0156C18.8225 22.0156 18.5986 21.7918 18.5986 21.5156V20.5156C18.5986 20.2395 18.8225 20.0156 19.0986 20.0156H20.5986V18.5156C20.5986 18.2395 20.8225 18.0156 21.0986 18.0156H22.0986C22.3748 18.0156 22.5986 18.2395 22.5986 18.5156V21.5156C22.5986 21.7918 22.3748 22.0156 22.0986 22.0156H19.0986ZM3.09863 18.0156C2.82249 18.0156 2.59863 18.2395 2.59863 18.5156V21.5156C2.59863 21.7918 2.82249 22.0156 3.09863 22.0156H6.09863C6.37477 22.0156 6.59863 21.7918 6.59863 21.5156L6.59863 20.5156C6.59863 20.2395 6.37477 20.0156 6.09863 20.0156H4.59863L4.59863 18.5156C4.59863 18.2395 4.37477 18.0156 4.09863 18.0156H3.09863ZM2.59863 5.51562C2.59863 5.79177 2.82249 6.01562 3.09863 6.01562H4.09863C4.37478 6.01562 4.59863 5.79177 4.59863 5.51562V4.01562L6.09863 4.01563C6.37478 4.01563 6.59863 3.79177 6.59863 3.51563V2.51562C6.59863 2.23948 6.37478 2.01562 6.09863 2.01562H3.09863C2.82249 2.01562 2.59863 2.23948 2.59863 2.51562V5.51562ZM19.0986 2.01562C18.8225 2.01562 18.5986 2.23948 18.5986 2.51563V3.51563C18.5986 3.79177 18.8225 4.01563 19.0986 4.01563H20.5986V5.51563C20.5986 5.79177 20.8225 6.01563 21.0986 6.01563H22.0986C22.3748 6.01563 22.5986 5.79177 22.5986 5.51563V2.51562C22.5986 2.23948 22.3748 2.01562 22.0986 2.01562H19.0986ZM2.59863 9.51563C2.59863 9.23948 2.82249 9.01563 3.09863 9.01563H4.09863C4.37478 9.01563 4.59863 9.23948 4.59863 9.51563V14.5156C4.59863 14.7918 4.37478 15.0156 4.09863 15.0156H3.09863C2.82249 15.0156 2.59863 14.7918 2.59863 14.5156V9.51563ZM22.5986 9.51563C22.5986 9.23948 22.3748 9.01563 22.0986 9.01563H21.0986C20.8225 9.01563 20.5986 9.23948 20.5986 9.51563V14.5156C20.5986 14.7918 20.8225 15.0156 21.0986 15.0156H22.0986C22.3748 15.0156 22.5986 14.7918 22.5986 14.5156V9.51563ZM15.0986 2.01562C15.3748 2.01562 15.5986 2.23948 15.5986 2.51563V3.51563C15.5986 3.79177 15.3748 4.01563 15.0986 4.01563L10.0986 4.01563C9.82249 4.01563 9.59863 3.79177 9.59863 3.51563V2.51562C9.59863 2.23948 9.82249 2.01562 10.0986 2.01562H15.0986ZM15.0986 22.0156C15.3748 22.0156 15.5986 21.7918 15.5986 21.5156V20.5156C15.5986 20.2395 15.3748 20.0156 15.0986 20.0156H10.0986C9.82249 20.0156 9.59863 20.2395 9.59863 20.5156V21.5156C9.59863 21.7918 9.82249 22.0156 10.0986 22.0156H15.0986Z"
        fill="#333333" />
</svg>
