<svg width="25" height="25" viewBox="0 0 25 25" fill="none" xmlns="http://www.w3.org/2000/svg">
    <path
        d="M19.8101 7.49644C19.4198 6.81616 18.9422 6.1899 18.3893 5.63364C17.5516 4.7956 16.557 4.13082 15.4623 3.67725C14.3676 3.22369 13.1943 2.99023 12.0094 2.99023C10.8244 2.99023 9.65114 3.22369 8.55645 3.67725C7.46176 4.13082 6.46714 4.7956 5.62943 5.63364C3.9383 7.32529 2.98828 9.61935 2.98828 12.0113C2.98828 14.4033 3.9383 16.6974 5.62943 18.389C6.26931 19.0292 7.00228 19.5691 7.80347 19.9902C14.8419 19.9902 19.8101 14.1817 19.8101 7.49644Z"
        fill="black" fill-opacity="0.2" />
    <path
        d="M4.80099 16.5746C11.3814 16.5746 16.2751 11.0803 16.2751 4.64903C14.6495 3.69165 12.7521 3.30102 10.8805 3.53844C9.00887 3.77585 7.26898 4.62787 5.93389 5.96083C4.56396 7.33612 3.70484 9.13807 3.49881 11.0683C3.29278 12.9985 3.75222 14.9412 4.80099 16.5746Z"
        fill="black" fill-opacity="0.6" />
    <path fill-rule="evenodd" clip-rule="evenodd"
        d="M12.3623 2.36523C6.83946 2.36523 2.3623 6.84239 2.3623 12.3652C2.3623 17.8881 6.83946 22.3652 12.3623 22.3652C17.8852 22.3652 22.3623 17.8881 22.3623 12.3652C22.3623 6.84239 17.8852 2.36523 12.3623 2.36523ZM12.0193 4.37245C12.1331 4.36766 12.2474 4.36523 12.3623 4.36523C16.7806 4.36523 20.3623 7.94696 20.3623 12.3652C20.3623 16.7835 16.7806 20.3652 12.3623 20.3652C7.94403 20.3652 4.3623 16.7835 4.3623 12.3652C4.3623 12.3522 4.36234 12.3393 4.3624 12.3263C6.354 12.228 8.24399 11.3935 9.66063 9.97687C11.1497 8.4878 11.9956 6.47576 12.0193 4.37245Z"
        fill="#0C0C06" />
</svg>
