<svg width="25" height="25" viewBox="0 0 25 25" fill="none" xmlns="http://www.w3.org/2000/svg">
    <path
        d="M18.1314 4.91662C16.6051 3.72539 14.6848 3.01562 12.5986 3.01562C7.62807 3.01562 3.59863 7.04506 3.59863 12.0156C3.59863 14.0834 4.29594 15.9882 5.46822 17.5079C8.70662 12.1205 13.2058 7.98113 18.1314 4.91662Z"
        fill="#333333" />
    <path
        d="M20.4939 7.69179C17.2776 9.2678 14.6491 10.8322 12.4559 12.6072C10.2171 14.419 8.41623 16.4635 6.91577 18.9949C7.10348 19.1479 7.29747 19.2935 7.49731 19.4312C10.7693 16.3755 16.4299 12.4532 21.505 10.713C21.3483 9.63172 20.9993 8.61274 20.4939 7.69179Z"
        fill="#333333" />
    <path
        d="M21.2528 14.4949C19.2384 15.9077 16.7773 18.1706 14.7872 20.7477C17.9019 19.9695 20.3739 17.5685 21.2528 14.4949Z"
        fill="#333333" />
    <path
        d="M13.1008 21.0019C14.8656 18.0722 17.32 15.5785 19.7962 13.8013C15.441 15.6536 12.4024 17.8005 10.1159 20.6688C10.9046 20.8947 11.7375 21.0156 12.5986 21.0156C12.7671 21.0156 12.9346 21.011 13.1008 21.0019Z"
        fill="#333333" />
</svg>
