<svg width="25" height="25" viewBox="0 0 25 25" fill="none" xmlns="http://www.w3.org/2000/svg">
    <path
        d="M20.5029 2.68763L19.3509 4.70362C19.0389 5.25563 19.4229 5.95163 20.0709 5.95163H22.3989C23.0469 5.95163 23.4309 5.25563 23.1189 4.70362L21.9189 2.68763C21.6069 2.13563 20.8149 2.13563 20.5029 2.68763ZM2.75091 21.6156L4.76691 22.7676C5.31891 23.0796 6.01491 22.6956 6.01491 22.0476V19.7196C6.01491 19.0716 5.31891 18.6876 4.76691 18.9996L2.75091 20.1516C2.19891 20.5116 2.19891 21.3036 2.75091 21.6156ZM4.40691 17.3906V7.19963C4.40691 5.47163 5.79891 4.07963 7.52691 4.07963H17.5986V2.01562H7.52691C4.67091 2.01562 2.34291 4.34363 2.34291 7.19963V17.3666H4.40691V17.3906Z"
        fill="#333333" />
    <path
        d="M19.9502 20.9444C19.9502 21.1146 19.9837 21.2832 20.0488 21.4404C20.114 21.5976 20.2094 21.7405 20.3298 21.8608C20.4501 21.9812 20.593 22.0767 20.7502 22.1418C20.9075 22.2069 21.076 22.2404 21.2462 22.2404C21.4164 22.2404 21.5849 22.2069 21.7422 22.1418C21.8994 22.0767 22.0423 21.9812 22.1626 21.8608C22.283 21.7405 22.3784 21.5976 22.4435 21.4404C22.5087 21.2832 22.5422 21.1146 22.5422 20.9444C22.5422 20.7742 22.5087 20.6057 22.4435 20.4485C22.3784 20.2912 22.283 20.1484 22.1626 20.028C22.0423 19.9077 21.8994 19.8122 21.7422 19.7471C21.5849 19.682 21.4164 19.6484 21.2462 19.6484C21.076 19.6484 20.9075 19.682 20.7502 19.7471C20.593 19.8122 20.4501 19.9077 20.3298 20.028C20.2094 20.1484 20.114 20.2912 20.0488 20.4485C19.9837 20.6057 19.9502 20.7742 19.9502 20.9444Z"
        fill="#333333" />
    <path
        d="M19.7843 20.9394C19.7843 20.5074 19.9763 20.1234 20.2883 19.8594H4.56032C3.98432 19.8594 3.52832 20.3154 3.52832 20.8914C3.52832 21.4674 3.98432 21.9234 4.56032 21.9234H20.1923C19.9283 21.6594 19.7843 21.3234 19.7843 20.9394Z"
        fill="#333333" />
    <path
        d="M21.2214 19.4345C21.3654 19.4345 21.5094 19.4825 21.6534 19.5305L18.0132 15.8003C17.7492 15.2963 17.1012 15.1043 16.5972 15.3923C16.0932 15.6563 15.9012 16.3043 16.1892 16.8083L19.8294 20.5625C19.9974 19.9145 20.5254 19.4345 21.2214 19.4345Z"
        fill="#333333" />
    <path
        d="M21.2484 19.4753C21.6324 19.4753 21.9924 19.6433 22.2564 19.8833V5.38747C22.2564 4.81147 21.8004 4.35547 21.2244 4.35547C20.6484 4.35547 20.1924 4.81147 20.1924 5.38747V19.9313C20.4324 19.6673 20.8164 19.4753 21.2484 19.4753Z"
        fill="#333333" />
    <path
        d="M15.1814 16.8932L14.7518 14.6052C14.6323 13.9683 15.241 13.4389 15.85 13.6908L18.0439 14.4511C18.6485 14.6794 18.7946 15.4578 18.3096 15.8663L16.5408 17.3705C16.0559 17.779 15.301 17.5301 15.1814 16.8932Z"
        fill="#333333" />
    <path
        d="M6.69511 11.8395C8.0699 10.5853 8.98643 9.59638 8.98643 8.80044C8.98643 8.29394 8.697 8.02863 8.26286 8.02863C7.87695 8.02863 7.58752 8.26982 7.32221 8.55925L6.59863 7.8598C7.12925 7.28094 7.63576 7.01562 8.43169 7.01562C9.49293 7.01562 10.2406 7.69096 10.2406 8.75221C10.2406 9.69285 9.42058 10.7541 8.57641 11.5983C8.84172 11.55 9.22762 11.5259 9.46881 11.5259H10.4818V12.6354H6.69511V11.8395ZM11.5189 7.08798H13.1108C14.7992 7.08798 15.9086 7.88392 15.9086 9.81345C15.9086 11.743 14.7992 12.5872 13.1832 12.5872H11.5189V7.08798ZM13.0385 11.5259C13.9309 11.5259 14.558 11.1159 14.558 9.81345C14.558 8.51101 13.9309 8.14923 13.0385 8.14923H12.8455V11.55H13.0385V11.5259Z"
        fill="#333333" />
</svg>
