<svg width="24" height="24" viewBox="0 0 24 24" fill="none" xmlns="http://www.w3.org/2000/svg">
    <g clip-path="url(#clip0_8754_106636)">
        <path fill-rule="evenodd" clip-rule="evenodd"
            d="M2 2H18C19.1 2 20 2.9 20 4V16C20 17.1 19.1 18 18 18H2C0.9 18 0 17.1 0 16V4C0 2.9 0.9 2 2 2ZM2 16H18V4H2V16ZM9 13.5093L12.5 9L17 15H3L6.5 10.5L9 13.5093ZM24 19L24 4L22 4L22 19C22 19.5523 21.5523 20 21 20L2 20L2 22L21 22C22.6569 22 24 20.6569 24 19Z"
            fill="#333333" />
    </g>
    <defs>
        <clipPath id="clip0_8754_106636">
            <rect width="24" height="24" fill="white" />
        </clipPath>
    </defs>
</svg>
