<svg width="25" height="25" viewBox="0 0 25 25" fill="none" xmlns="http://www.w3.org/2000/svg">
    <path
        d="M7.59012 11.0974L4.32452 14.363L9.84967 19.8881H11.0943V19.886H12.341L14.3599 17.8671L7.59012 11.0974ZM15.3493 19.886H22.2956C22.5717 19.886 22.7956 20.1098 22.7956 20.386V21.5135C22.7956 21.7896 22.5717 22.0135 22.2956 22.0135H13.2218L9.17613 22.0155C9.04344 22.0156 8.91616 21.9629 8.82233 21.8691L2.06829 15.115C1.86887 14.9155 1.75684 14.645 1.75684 14.363C1.75684 14.0809 1.86887 13.8104 2.06829 13.6109L13.3494 2.32761C13.4482 2.22871 13.5655 2.15024 13.6947 2.09671C13.8238 2.04318 13.9622 2.01562 14.102 2.01562C14.2418 2.01562 14.3803 2.04318 14.5094 2.09671C14.6385 2.15024 14.7559 2.22871 14.8546 2.32761L23.1285 10.6015C23.328 10.801 23.44 11.0715 23.44 11.3536C23.44 11.6357 23.328 11.9062 23.1285 12.1057L15.3493 19.886Z"
        fill="#333333" />
</svg>
