<svg width="25" height="25" viewBox="0 0 25 25" fill="none" xmlns="http://www.w3.org/2000/svg">
    <path fill-rule="evenodd" clip-rule="evenodd"
        d="M12.5986 2.01562C7.07579 2.01562 2.59863 6.49278 2.59863 12.0156C2.59863 17.5385 7.07579 22.0156 12.5986 22.0156C18.1215 22.0156 22.5986 17.5385 22.5986 12.0156C22.5986 6.49278 18.1215 2.01562 12.5986 2.01562ZM6.72765 6.58127C8.18892 5.00336 10.2784 4.01562 12.5986 4.01562C14.9188 4.01562 17.0083 5.00334 18.4696 6.58123L17.7119 6.07614C17.2081 5.74024 16.5517 5.74024 16.0478 6.07614L14.7393 6.94853L13.4307 6.07614C12.9268 5.74024 12.2704 5.74024 11.7666 6.07614L10.458 6.94853L9.14945 6.07614C8.6456 5.74024 7.98919 5.74024 7.48534 6.07614L6.72765 6.58127ZM5.28876 8.76022C5.03503 9.3291 4.84576 9.93304 4.73023 10.5628L6.17677 11.5271L7.48535 10.6548C7.98919 10.3189 8.6456 10.3189 9.14945 10.6548L10.458 11.5271L11.7666 10.6548C12.2704 10.3189 12.9268 10.3189 13.4307 10.6548L14.7393 11.5271L16.0478 10.6548C16.5517 10.3189 17.2081 10.3189 17.7119 10.6548L19.0205 11.5271L20.467 10.5628C20.3515 9.93306 20.1622 9.32911 19.9085 8.76023L19.8526 8.79753C19.3487 9.13343 18.6923 9.13343 18.1885 8.79753L16.8799 7.92514L15.5713 8.79753C15.0675 9.13343 14.4111 9.13343 13.9072 8.79753L12.5986 7.92514L11.2901 8.79753C10.7862 9.13343 10.1298 9.13343 9.62597 8.79753L8.3174 7.92514L7.00882 8.79753C6.50497 9.13343 5.84857 9.13343 5.34472 8.79753L5.28876 8.76022ZM4.64827 12.9118C4.76684 13.9755 5.09396 14.9762 5.5878 15.872L6.17677 16.1058L7.48534 15.2334C7.98919 14.8975 8.6456 14.8975 9.14945 15.2334L10.458 16.1058L11.7666 15.2334C12.2704 14.8975 12.9268 14.8975 13.4307 15.2334L14.7393 16.1058L16.0478 15.2334C16.5517 14.8975 17.2081 14.8975 17.7119 15.2334L19.0205 16.1058L19.6095 15.872C20.1033 14.9762 20.4304 13.9755 20.549 12.9119L19.8526 13.3761C19.3487 13.712 18.6923 13.712 18.1885 13.3761L16.8799 12.5038L15.5713 13.3761C15.0675 13.712 14.4111 13.712 13.9072 13.3761L12.5986 12.5038L11.2901 13.3761C10.7862 13.712 10.1298 13.712 9.62597 13.3761L8.3174 12.5038L7.00882 13.3761C6.50497 13.712 5.84857 13.712 5.34472 13.3761L4.64827 12.9118ZM12.5986 20.0156C10.4896 20.0156 8.57126 19.1995 7.14205 17.8659L8.3174 17.0824L9.62597 17.9548C10.1298 18.2907 10.7862 18.2907 11.2901 17.9548L12.5986 17.0824L13.9072 17.9548C14.4111 18.2907 15.0675 18.2907 15.5713 17.9548L16.8799 17.0824L18.0552 17.8659C16.626 19.1995 14.7076 20.0156 12.5986 20.0156Z"
        fill="#333333" />
</svg>
