<svg width="25" height="25" viewBox="0 0 25 25" fill="none" xmlns="http://www.w3.org/2000/svg">
    <g clip-path="url(#clip0_412_12318)">
        <path
            d="M9.65009 5.12891C9.65009 4.85276 9.42623 4.62891 9.15009 4.62891H8.15009C7.87394 4.62891 7.65009 4.85276 7.65009 5.12891V7.98486L4.54199 7.98486C4.26585 7.98486 4.04199 8.20872 4.04199 8.48486V9.48486C4.04199 9.76101 4.26585 9.98486 4.54199 9.98486L7.65009 9.98486V15.6162C7.65009 16.1685 8.0978 16.6162 8.65009 16.6162H14.5975V19.7254C14.5975 20.0015 14.8213 20.2254 15.0975 20.2254H16.0975C16.3736 20.2254 16.5975 20.0015 16.5975 19.7254V16.6162H19.1374C19.4135 16.6162 19.6374 16.3924 19.6374 16.1162V15.1162C19.6374 14.8401 19.4135 14.6162 19.1374 14.6162H9.65009V5.12891Z"
            fill="#333333" />
        <path
            d="M15.2817 7.98486H11.6238C11.3476 7.98486 11.1238 8.20872 11.1238 8.48486V9.48486C11.1238 9.76101 11.3476 9.98486 11.6238 9.98486H14.2817V12.6428C14.2817 12.9189 14.5055 13.1428 14.7817 13.1428H15.7817C16.0578 13.1428 16.2817 12.9189 16.2817 12.6428V8.98486C16.2817 8.43258 15.834 7.98486 15.2817 7.98486Z"
            fill="#333333" />
        <path
            d="M2.0801 19.4821L2.96238 17.953C3.76947 20.9651 6.86519 22.7527 9.87729 21.9456L10.8182 21.6935C10.9595 21.6556 11.0435 21.5104 11.0056 21.3691L10.7242 20.3187C10.667 20.1053 10.4474 19.9788 10.234 20.036L9.52603 20.2256C7.39217 20.7974 5.19924 19.531 4.62747 17.3971L3.87321 14.5821C3.75794 14.152 3.18002 14.0753 2.95719 14.4609L0.562088 18.6057C0.423887 18.8448 0.505793 19.1507 0.745005 19.2888L1.39702 19.6653C1.63621 19.8034 1.94207 19.7214 2.0801 19.4821Z"
            fill="#333333" />
        <path
            d="M22.1679 4.80301L21.2857 6.33214C20.4786 3.32003 17.3829 1.53247 14.3708 2.33958L13.4298 2.59169C13.2886 2.62955 13.2045 2.7748 13.2424 2.91606L13.5238 3.96644C13.581 4.17983 13.8007 4.30638 14.0141 4.2492L14.722 4.05951C16.8559 3.48774 19.0488 4.75419 19.6206 6.88806L20.3748 9.70301C20.4901 10.1332 21.068 10.2099 21.2909 9.82426L23.686 5.6795C23.8242 5.44034 23.7423 5.13443 23.503 4.99632L22.851 4.61988C22.6118 4.48178 22.306 4.56378 22.1679 4.80301Z"
            fill="#333333" />
    </g>
    <defs>
        <clipPath id="clip0_412_12318">
            <rect width="24" height="24" fill="white" transform="translate(0.124023 0.142578)" />
        </clipPath>
    </defs>
</svg>
