<svg width="25" height="25" viewBox="0 0 25 25" fill="none" xmlns="http://www.w3.org/2000/svg">
    <path fill-rule="evenodd" clip-rule="evenodd"
        d="M6.36006 8.695C4.92081 9.77444 4.12402 11.1893 4.12402 12.668C4.12402 14.1466 4.92081 15.5615 6.36006 16.6409C7.79962 17.7206 9.83419 18.418 12.124 18.418C14.4139 18.418 16.4484 17.7206 17.888 16.6409C19.3272 15.5615 20.124 14.1466 20.124 12.668C20.124 11.1893 19.3272 9.77444 17.888 8.695C16.4484 7.61533 14.4139 6.91797 12.124 6.91797C9.83419 6.91797 7.79962 7.61533 6.36006 8.695ZM5.16006 7.095C6.97786 5.73165 9.44329 4.91797 12.124 4.91797C14.8048 4.91797 17.2702 5.73165 19.088 7.095C20.9061 8.45858 22.124 10.4187 22.124 12.668C22.124 14.9173 20.9061 16.8774 19.088 18.2409C17.2702 19.6043 14.8048 20.418 12.124 20.418C9.44329 20.418 6.97786 19.6043 5.16006 18.2409C3.34196 16.8774 2.12402 14.9173 2.12402 12.668C2.12402 10.4187 3.34196 8.45858 5.16006 7.095Z"
        fill="#333333" />
</svg>
