<svg width="25" height="25" viewBox="0 0 25 25" fill="none" xmlns="http://www.w3.org/2000/svg">
    <path fill-rule="evenodd" clip-rule="evenodd"
        d="M11.5535 2.18803C11.7331 1.63524 12.5152 1.63524 12.6948 2.18803L14.8713 8.88671H21.9147C22.496 8.88671 22.7376 9.63048 22.2674 9.97212L16.5692 14.1121L18.7457 20.8108C18.9253 21.3636 18.2926 21.8233 17.8224 21.4816L12.1242 17.3416L6.42591 21.4816C5.95568 21.8233 5.323 21.3636 5.50261 20.8108L7.67914 14.1121L1.9809 9.97212C1.51067 9.63048 1.75234 8.88671 2.33357 8.88671H9.37699L11.5535 2.18803ZM12.1242 6.90393L10.8301 10.8867H6.64233L10.0303 13.3482L8.7362 17.331L12.1242 14.8695L15.5121 17.331L14.218 13.3482L17.606 10.8867H13.4182L12.1242 6.90393Z"
        fill="#333333" />
</svg>
