<svg width="25" height="25" viewBox="0 0 25 25" fill="none" xmlns="http://www.w3.org/2000/svg">
    <path fill-rule="evenodd" clip-rule="evenodd"
        d="M3.12402 10.2027C3.12402 7.22041 5.54169 4.80273 8.52402 4.80273C9.90751 4.80273 11.1693 5.32356 12.124 6.17788C13.0787 5.32356 14.3405 4.80273 15.724 4.80273C18.7063 4.80273 21.124 7.22041 21.124 10.2027C21.124 12.7868 19.6131 15.1271 17.8846 16.8727C16.1464 18.628 14.0161 19.9582 12.4394 20.4822L12.124 20.587L11.8087 20.4822C10.2319 19.9582 8.10164 18.628 6.36345 16.8727C4.63498 15.1271 3.12402 12.7868 3.12402 10.2027ZM8.52402 6.80273C6.64626 6.80273 5.12402 8.32498 5.12402 10.2027C5.12402 12.0186 6.21306 13.8784 7.7846 15.4654C9.21758 16.9126 10.9098 17.9875 12.124 18.4689C13.3383 17.9875 15.0305 16.9126 16.4634 15.4654C18.035 13.8784 19.124 12.0186 19.124 10.2027C19.124 8.32498 17.6018 6.80273 15.724 6.80273C14.5749 6.80273 13.5586 7.37184 12.9416 8.24802L12.5328 8.82855C12.3337 9.11137 11.9144 9.11137 11.7152 8.82855L11.3064 8.24802C10.6894 7.37184 9.67311 6.80273 8.52402 6.80273Z"
        fill="#333333" />
</svg>
